<?xml version="1.0" standalone="no"?>
<!DOCTYPE svg PUBLIC "-//W3C//DTD SVG 20010904//EN"
 "http://www.w3.org/TR/2001/REC-SVG-20010904/DTD/svg10.dtd">
<svg version="1.0" xmlns="http://www.w3.org/2000/svg"
 width="153.000000pt" height="118.000000pt" viewBox="0 0 153.000000 118.000000"
 preserveAspectRatio="xMidYMid meet">

<g transform="translate(0.000000,118.000000) scale(0.100000,-0.100000)"
fill="#000000" stroke="none">
<path d="M331 1165 c-112 -32 -203 -97 -261 -187 -148 -228 -46 -515 219 -620
80 -32 242 -32 322 0 122 48 216 139 261 252 31 77 31 213 0 290 -45 113 -141
205 -261 251 -74 28 -206 35 -280 14z m248 -326 c63 -69 63 -70 45 -92 -47
-57 -109 -117 -121 -117 -26 0 -12 35 29 77 l42 43 -163 0 c-149 0 -162 1
-159 18 3 15 21 18 161 22 l158 5 -40 40 c-40 38 -54 75 -28 75 7 0 41 -32 76
-71z"/>
</g>
</svg>
